# xmcd
#
# Track frame offsets:
#	150
#	14445
#	27915
#	46040
#	60350
#	76985
#	92453
#	109510
#	124032
#	140377
#	155368
#	173249
#	194147
#
# Disc length: 2805 seconds
# Revision: 8
# Processed by: cddbd v1.5.2PL0 Copyright (c) Steve Scherf et al.
# Submitted via: dBpowerAMP V12.0
#
DISCID=9b0af30d
DTITLE=Various Artist - Kill The Lights
DYEAR=2015
DGENRE=Country
TTITLE0=Luke Bryan - Kick The Dust Up
TTITLE1=Luke Bryan - Kill The Lights
TTITLE2=Luke Bryan - Strip It Down
TTITLE3=Luke Bryan and Karen Fairchild - Home Alone Tonight
TTITLE4=Luke Bryan - Razor Blade
TTITLE5=Luke Bryan - Fast
TTITLE6=Luke Bryan - Move
TTITLE7=Luke Bryan - Just Over
TTITLE8=Luke Bryan - Love It Gone
TTITLE9=Luke Bryan - Way Way Back
TTITLE10=Luke Bryan - To The Moon And Back
TTITLE11=Luke Bryan - Huntin', Fishin' And Lovin' Every Day
TTITLE12=Luke Bryan - Scarecrows
EXTD=
EXTT0=
EXTT1=
EXTT2=
EXTT3=
EXTT4=
EXTT5=
EXTT6=
EXTT7=
EXTT8=
EXTT9=
EXTT10=
EXTT11=
EXTT12=
PLAYORDER=
